<svg xmlns="http://www.w3.org/2000/svg" viewBox="0 0 373.83 381"><defs><style>.cls-1{fill:#fff;}</style></defs><title>Asset 1</title><g id="Layer_2" data-name="Layer 2"><g id="Layer_2-2" data-name="Layer 2"><path class="cls-1" d="M304,180c5.39,5.39,22,0,33,61,13.6,75.44,11,61,11,61-9.38,1.88-11.33,36.17-5.37,58.7,3.57,13.52,10,22.8,19.37,18.3,31.55-15.15-10-82-10-82-1-19-3-19-13-74s-35-57-44-61-6.5-10.5-6.5-10.5c4.74-1.29,29.56-16.2,46.5-41.5s26-61,26-61c-27,0-157.5-3.5-157.5-3.5l-71,52C110,90,102,53,102,53s2-40,2-53H38s-2,11-3,24-3,29,0,42,2,20,2,20-8,13.84-8,17c0,2,11,1,11,1a88,88,0,0,1-.5,20.5s-9,44-14,88,10,46,10,46,1,12,0,48C34.54,341,13,366.89,11.12,368.87a3.07,3.07,0,0,0-.24.29L0,381H16l11-18s-6,15-9,18H48s9-14,8-18l7,2s-3-20-1-24,28-49,28-54,4-11,4-11l24,51-2,30L96,381h36l7-10s-3-12,7-11l-8-12V300s-10-22-6-26c0,0,73,11,94-8,0,0,7,20-2,50s-20,42-20,42l-19,23h36s1-20,12-16l-2-10,14-19s6-44,14-44,19-14,19-14,50,25,41,78l-19,25h33l3-9,4-5-1-5s-6-55,0-58c0,0-29-22-24-47s4-43-11-61Z"/></g></g></svg>